<svg xmlns="http://www.w3.org/2000/svg" viewBox="0 0 17 19"><path fill="#33323D" d="M10.7726 11.9379C10.777 11.9052 10.7748 11.8718 10.7659 11.8401C10.7571 11.8084 10.7419 11.7791 10.7214 11.7541C10.701 11.7291 10.6757 11.7091 10.6473 11.6954C10.6188 11.6817 10.588 11.6746 10.5567 11.6746C10.5256 11.6746 10.4948 11.6817 10.4663 11.6954C10.4379 11.7091 10.4126 11.7291 10.3921 11.7541C10.3717 11.7791 10.3565 11.8084 10.3477 11.8401C10.3388 11.8718 10.3366 11.9052 10.341 11.9379C10.342 12.1688 10.2565 12.3907 10.1033 12.555C9.95004 12.7193 9.74154 12.8128 9.52338 12.8148H8.32594V11.5127C8.68297 11.417 9.14627 11.1666 9.14627 10.8608C9.14627 10.4744 8.65851 10.1686 8.0665 10.1686C7.47462 10.1686 6.98686 10.4744 6.98686 10.8608C6.98686 11.1932 7.51175 11.466 7.89375 11.5358V12.8148H6.69907C6.48091 12.8128 6.27241 12.7193 6.11923 12.555C5.96593 12.3907 5.88049 12.1688 5.8815 11.9379C5.88564 11.9053 5.88313 11.8722 5.8741 11.8408C5.86519 11.8092 5.84988 11.7802 5.82944 11.7555C5.80899 11.7307 5.78377 11.7108 5.75554 11.6973C5.72719 11.6837 5.69646 11.6767 5.66547 11.6767C5.63436 11.6767 5.60362 11.6837 5.57539 11.6973C5.54704 11.7108 5.52183 11.7307 5.50138 11.7555C5.48093 11.7802 5.46575 11.8092 5.45672 11.8408C5.44781 11.8722 5.44518 11.9053 5.44932 11.9379C5.44831 12.25 5.55068 12.5526 5.73848 12.7933C5.92641 13.0339 6.18798 13.1971 6.47777 13.2549C6.48831 13.3418 6.50336 13.4598 6.52306 13.6091C6.56985 13.9637 6.64262 14.4956 6.7411 15.2048C6.75741 15.3309 6.81587 15.4468 6.90582 15.5314C6.99564 15.616 7.11131 15.6639 7.23162 15.6663L8.01318 15.6773C8.04956 15.6789 8.0862 15.6763 8.1222 15.6698C8.14114 15.6757 8.16072 15.6789 8.18041 15.6795L8.98055 15.6905C9.10261 15.6916 9.22091 15.646 9.31375 15.562C9.40646 15.4781 9.46743 15.3614 9.48524 15.2336L9.76977 13.2497C10.054 13.1866 10.3091 13.0217 10.4917 12.7827C10.6744 12.5437 10.7736 12.2453 10.7726 11.9379ZM10.0096 3.69258L15.0603 6.77658C15.403 6.98692 15.6802 7.29822 15.8585 7.67251C16.0367 8.0468 16.1082 8.46791 16.0643 8.88449L15.5329 13.9962C15.4973 14.3451 15.3817 14.6796 15.1962 14.9703C15.0108 15.2612 14.7609 15.4997 14.4685 15.6651L8.97615 18.7525C8.68724 18.915 8.36508 19 8.0379 19C7.71072 19 7.38856 18.915 7.09964 18.7525L1.61124 15.6651C1.31828 15.5 1.06786 15.2618 0.881773 14.9709C0.69569 14.68 0.579571 14.3454 0.543541 13.9962L0.012677 8.88449C-0.0313944 8.46796 0.0400006 8.04687 0.218168 7.67256C0.396348 7.29827 0.673585 6.98695 1.01607 6.77658L6.57425 3.38511L5.94636 1.3747L7.03315 2.00926L6.45331 0L7.9837 1.69082L7.77006 0.517455L10.0096 3.69258ZM3.93523 8.8741C3.93473 8.9968 3.95706 9.11841 4.00109 9.23195C4.045 9.34549 4.10974 9.44873 4.19141 9.53577C4.26931 9.62368 4.36352 9.69378 4.46803 9.74164C4.57253 9.78963 4.68518 9.81436 4.7991 9.81436C4.88528 9.81249 4.97096 9.80086 5.05477 9.77974C5.23178 9.71877 5.38609 9.59986 5.49536 9.44026C5.60462 9.28065 5.66334 9.08852 5.66296 8.8914C5.66296 8.38605 5.28146 7.9684 4.8149 7.9684C4.61619 7.97124 4.42424 8.04481 4.26994 8.17723C4.04751 8.31683 3.93523 8.57701 3.93523 8.8741ZM10.2691 8.8741C10.2684 8.9968 10.2909 9.11841 10.3348 9.23195C10.3787 9.34549 10.4434 9.44873 10.5251 9.53577C10.6031 9.62368 10.6972 9.69378 10.8017 9.74164C10.9062 9.78963 11.019 9.81436 11.1329 9.81436C11.219 9.81249 11.3047 9.80086 11.3885 9.77974C11.5655 9.71864 11.7197 9.59981 11.8288 9.4402C11.9381 9.28058 11.9967 9.08846 11.9962 8.8914C11.9962 8.38605 11.6147 7.9684 11.1487 7.9684C10.95 7.97111 10.758 8.04469 10.6036 8.17723C10.3807 8.31683 10.2691 8.57701 10.2691 8.8741ZM15.1775 6.09124C15.2113 6.00864 15.2286 5.9196 15.2286 5.82963C15.2286 5.73965 15.2113 5.65062 15.1775 5.56801C14.9906 5.12152 14.6593 4.32196 14.3283 4.10621C13.9687 3.89104 13.0039 3.96776 12.5576 4.01391C12.5292 4.01391 12.2851 4.07563 12.2409 4.16794C12.2126 4.24466 11.9122 4.78347 11.9122 4.78347L12.2 4.95249L14.9062 6.5989L15.1775 6.09124ZM11.7155 3.91526L11.7258 3.89276C11.8769 3.57029 12.2551 3.41281 12.5211 3.39953C13.4863 3.30089 14.1698 3.30609 14.6096 3.56914L14.6277 3.58068C14.9334 3.77912 15.1677 4.14082 15.4255 4.68425C15.5155 4.87288 15.5727 5.00556 15.704 5.31881C15.8189 5.59352 15.8374 5.90268 15.7558 6.19046C15.7399 6.25124 15.7187 6.31033 15.6926 6.36699L15.685 6.38314L15.117 7.43652L14.6194 7.13482L11.9204 5.49186L11.1088 5.0148L11.4163 4.46675C11.4266 4.44888 11.4441 4.41657 11.4675 4.37561L11.5798 4.17198L11.5858 4.16044C11.6251 4.08891 11.6577 4.02833 11.6823 3.98102C11.6953 3.9568 11.7051 3.93719 11.7123 3.92334C11.7123 3.92334 11.7123 3.92334 11.7067 3.93834L11.7155 3.91526ZM4.17999 4.75231C4.12542 4.64501 3.8922 4.22966 3.86335 4.16794C3.82019 4.06006 3.5733 4.01391 3.54658 4.01391C3.08605 3.96776 2.13612 3.89104 1.77645 4.10621C1.44774 4.30812 1.11419 5.12152 0.926684 5.56801C0.893151 5.65067 0.875852 5.73968 0.875852 5.82963C0.875852 5.91958 0.893151 6.0086 0.926684 6.09124L1.1992 6.58332L4.17999 4.75231ZM4.38059 3.8968C4.39087 3.92045 4.44545 4.01968 4.52222 4.15813L4.61267 4.32311C4.64491 4.38081 4.66725 4.41946 4.67816 4.44426L4.96319 4.9773L0.99537 7.41922L0.420898 6.38487L0.41218 6.36642C0.386525 6.30952 0.365374 6.25049 0.348965 6.18989C0.267835 5.90124 0.287166 5.59135 0.403461 5.3165C0.556613 4.95076 0.590949 4.87173 0.675981 4.68597C0.93923 4.12583 1.17522 3.76297 1.49352 3.56914C1.93339 3.30609 2.58361 3.30089 3.57769 3.39896C3.86435 3.40877 4.22415 3.54549 4.38059 3.8968ZM6.94822 13.5444C6.93454 13.4395 6.9225 13.3501 6.91322 13.2768C7.14819 13.2768 7.45291 13.2768 7.88999 13.282C7.86891 13.9742 7.85072 14.4998 7.83542 14.8586C7.82965 15.004 7.824 15.1215 7.81861 15.2111L7.23538 15.2031C7.21819 15.2025 7.20176 15.1957 7.18896 15.1837C7.17604 15.1717 7.16764 15.1552 7.16513 15.1373C7.06765 14.4292 6.99539 13.8983 6.94822 13.5444ZM8.39192 15.2174L8.33095 13.2838C8.84706 13.2872 9.12883 13.2895 9.32717 13.29L9.05795 15.1603C9.05532 15.1786 9.04666 15.1952 9.03349 15.2074C9.02031 15.2194 9.0035 15.2261 8.98607 15.2261L8.39192 15.2174Z"></path></svg>